<svg width="1200" height="1600" xmlns="http://www.w3.org/2000/svg"><text x="50" y="50" fill="#000000" style="font-size:32px; font-family:Arial;">DProject-AI-Dividend &#8211; Repository Architecture Diagram</text><rect x="50" y="100" width="300" height="60" fill="#ffffff" stroke="#000000" /><text x="70" y="135" fill="#000000" style="font-size:20px; font-family:Arial;">00-Dashboard</text><rect x="50" y="200" width="300" height="60" fill="#ffffff" stroke="#000000" /><text x="70" y="235" fill="#000000" style="font-size:20px; font-family:Arial;">01-Context</text><rect x="50" y="300" width="300" height="60" fill="#ffffff" stroke="#000000" /><text x="70" y="335" fill="#000000" style="font-size:20px; font-family:Arial;">02-Efficiency</text><rect x="50" y="400" width="300" height="60" fill="#ffffff" stroke="#000000" /><text x="70" y="435" fill="#000000" style="font-size:20px; font-family:Arial;">03-Redistribution</text><rect x="50" y="500" width="300" height="60" fill="#ffffff" stroke="#000000" /><text x="70" y="535" fill="#000000" style="font-size:20px; font-family:Arial;">04-Policy</text><rect x="50" y="600" width="300" height="60" fill="#ffffff" stroke="#000000" /><text x="70" y="635" fill="#000000" style="font-size:20px; font-family:Arial;">05-Taxation</text><rect x="50" y="700" width="300" height="60" fill="#ffffff" stroke="#000000" /><text x="70" y="735" fill="#000000" style="font-size:20px; font-family:Arial;">06-Partnerships</text><rect x="50" y="800" width="300" height="60" fill="#ffffff" stroke="#000000" /><text x="70" y="835" fill="#000000" style="font-size:20px; font-family:Arial;">07-NewModels</text><rect x="50" y="900" width="300" height="60" fill="#ffffff" stroke="#000000" /><text x="70" y="935" fill="#000000" style="font-size:20px; font-family:Arial;">08-Modeling</text><rect x="50" y="1000" width="300" height="60" fill="#ffffff" stroke="#000000" /><text x="70" y="1035" fill="#000000" style="font-size:20px; font-family:Arial;">09-Outreach</text><rect x="50" y="1100" width="300" height="60" fill="#ffffff" stroke="#000000" /><text x="70" y="1135" fill="#000000" style="font-size:20px; font-family:Arial;">10-Reflection</text><rect x="600" y="200" width="300" height="60" fill="#ffffff" stroke="#000000" /><text x="620" y="235" fill="#000000" style="font-size:20px; font-family:Arial;">templates/</text><rect x="600" y="300" width="300" height="60" fill="#ffffff" stroke="#000000" /><text x="620" y="335" fill="#000000" style="font-size:20px; font-family:Arial;">prompts/</text><rect x="600" y="400" width="300" height="60" fill="#ffffff" stroke="#000000" /><text x="620" y="435" fill="#000000" style="font-size:20px; font-family:Arial;">scripts/</text><rect x="600" y="500" width="300" height="60" fill="#ffffff" stroke="#000000" /><text x="620" y="535" fill="#000000" style="font-size:20px; font-family:Arial;">docs/</text></svg>